<svg xmlns="http://www.w3.org/2000/svg" width="24" height="24" viewBox="0 0 24 24" fill="none">
  <mask id="mask0_3041_3302" style="mask-type:alpha" maskUnits="userSpaceOnUse" x="0" y="0" width="24" height="24">
    <rect width="24" height="24" fill="#D9D9D9"/>
  </mask>
  <g mask="url(#mask0_3041_3302)">
    <path d="M6.00098 14.0039H18.001L14.251 9.00391L11.251 13.0039L9.00098 10.0039L6.00098 14.0039ZM2.00098 22.0039V4.00391C2.00098 3.45391 2.19681 2.98307 2.58848 2.59141C2.98014 2.19974 3.45098 2.00391 4.00098 2.00391H20.001C20.551 2.00391 21.0218 2.19974 21.4135 2.59141C21.8051 2.98307 22.001 3.45391 22.001 4.00391V16.0039C22.001 16.5539 21.8051 17.0247 21.4135 17.4164C21.0218 17.8081 20.551 18.0039 20.001 18.0039H6.00098L2.00098 22.0039ZM5.15098 16.0039H20.001V4.00391H4.00098V17.1289L5.15098 16.0039Z" fill="#441CBD"/>
  </g>
</svg>