<svg xmlns="http://www.w3.org/2000/svg" width="18" height="18" viewBox="0 0 18 18" fill="none">
<path d="M5.625 14.625C5.025 14.625 4.5 14.4 4.05 13.95C3.15 13.05 3.15 11.625 4.05 10.8C4.35 10.5 4.8 10.5 5.1 10.8C5.4 11.1 5.4 11.55 5.1 11.85C4.8 12.15 4.8 12.6 5.1 12.9C5.4 13.2 5.85 13.2 6.15 12.9C6.45 12.6 6.9 12.6 7.2 12.9C7.5 13.2 7.5 13.65 7.2 13.95C6.75 14.4 6.15 14.625 5.625 14.625ZM15.15 9.975C14.925 9.975 14.775 9.9 14.625 9.75C14.325 9.45 14.325 9 14.625 8.7C15.525 7.8 15.525 6.375 14.625 5.55C13.8 4.725 12.3 4.725 11.475 5.55C11.175 5.85 10.725 5.85 10.425 5.55C10.125 5.25 10.125 4.8 10.425 4.5C11.1 3.75 12 3.375 13.05 3.375C14.1 3.375 15 3.75 15.675 4.425C17.1 5.85 17.1 8.25 15.675 9.75C15.525 9.9 15.3 9.975 15.15 9.975Z" fill="white"/>
<path d="M4.4999 12.075C4.2749 12.075 4.1249 12 3.9749 11.85C3.6749 11.55 3.6749 11.1 3.9749 10.8L10.3499 4.425C10.6499 4.125 11.0999 4.125 11.3999 4.425C11.6999 4.725 11.6999 5.175 11.3999 5.475L5.0249 11.85C4.9499 12 4.7249 12.075 4.4999 12.075ZM8.7749 16.35C8.5499 16.35 8.3999 16.275 8.2499 16.125C7.9499 15.825 7.9499 15.375 8.2499 15.075L14.6249 8.7C14.9249 8.4 15.3749 8.4 15.6749 8.7C15.9749 9 15.9749 9.45 15.6749 9.75L9.2999 16.125C9.1499 16.275 8.9999 16.35 8.7749 16.35ZM6.6749 14.175C6.4499 14.175 6.2999 14.1 6.1499 13.95C5.8499 13.65 5.8499 13.2 6.1499 12.9L12.5249 6.525C12.8249 6.225 13.2749 6.225 13.5749 6.525C13.8749 6.825 13.8749 7.275 13.5749 7.575L7.1999 13.95C7.0499 14.175 6.8249 14.175 6.6749 14.175ZM2.3999 9.975C2.1749 9.975 2.0249 9.9 1.8749 9.75C1.5749 9.45 1.5749 9 1.8749 8.7L10.3499 0.225C10.6499 -0.075 11.0999 -0.075 11.3999 0.225C11.6999 0.525 11.6999 0.975 11.3999 1.275L2.9249 9.75C2.7749 9.9 2.6249 9.975 2.3999 9.975Z" fill="white"/>
<path d="M5.6252 17.6258C4.2752 17.6258 2.9252 17.1008 1.9502 16.1258C0.975195 15.1508 0.450195 13.8008 0.450195 12.4508C0.450195 11.1008 0.975195 9.75078 1.9502 8.77578C2.2502 8.47578 2.7002 8.47578 3.0002 8.77578C3.3002 9.07578 3.3002 9.52578 3.0002 9.82578C2.3252 10.5008 1.8752 11.4758 1.8752 12.4508C1.8752 13.4258 2.2502 14.4008 3.0002 15.0758C4.4252 16.5008 6.8252 16.5008 8.3252 15.0758C8.6252 14.7758 9.0752 14.7758 9.37519 15.0758C9.67519 15.3758 9.67519 15.8258 9.37519 16.1258C8.2502 17.1758 6.9752 17.6258 5.6252 17.6258Z" fill="white"/>
</svg>