<svg width="39" height="40" viewBox="0 0 39 40" fill="none" xmlns="http://www.w3.org/2000/svg">
<g id="cancel">
<mask id="mask0_3170_14078" style="mask-type:alpha" maskUnits="userSpaceOnUse" x="0" y="0" width="39" height="40">
<rect id="Bounding box" y="0.480469" width="39" height="39" fill="#D9D9D9"/>
</mask>
<g mask="url(#mask0_3170_14078)">
<path id="cancel_2" d="M13.65 28.1055L19.5 22.2555L25.35 28.1055L27.625 25.8305L21.775 19.9805L27.625 14.1305L25.35 11.8555L19.5 17.7055L13.65 11.8555L11.375 14.1305L17.225 19.9805L11.375 25.8305L13.65 28.1055ZM19.5 36.2305C17.2521 36.2305 15.1396 35.8039 13.1625 34.9508C11.1854 34.0977 9.46562 32.9398 8.00312 31.4773C6.54062 30.0148 5.38281 28.2951 4.52969 26.318C3.67656 24.3409 3.25 22.2284 3.25 19.9805C3.25 17.7326 3.67656 15.6201 4.52969 13.643C5.38281 11.6659 6.54062 9.94609 8.00312 8.48359C9.46562 7.02109 11.1854 5.86328 13.1625 5.01016C15.1396 4.15703 17.2521 3.73047 19.5 3.73047C21.7479 3.73047 23.8604 4.15703 25.8375 5.01016C27.8146 5.86328 29.5344 7.02109 30.9969 8.48359C32.4594 9.94609 33.6172 11.6659 34.4703 13.643C35.3234 15.6201 35.75 17.7326 35.75 19.9805C35.75 22.2284 35.3234 24.3409 34.4703 26.318C33.6172 28.2951 32.4594 30.0148 30.9969 31.4773C29.5344 32.9398 27.8146 34.0977 25.8375 34.9508C23.8604 35.8039 21.7479 36.2305 19.5 36.2305ZM19.5 32.9805C23.1292 32.9805 26.2031 31.7211 28.7219 29.2023C31.2406 26.6836 32.5 23.6096 32.5 19.9805C32.5 16.3513 31.2406 13.2773 28.7219 10.7586C26.2031 8.23984 23.1292 6.98047 19.5 6.98047C15.8708 6.98047 12.7969 8.23984 10.2781 10.7586C7.75938 13.2773 6.5 16.3513 6.5 19.9805C6.5 23.6096 7.75938 26.6836 10.2781 29.2023C12.7969 31.7211 15.8708 32.9805 19.5 32.9805Z" fill="#FF4C4C"/>
</g>
</g>
</svg>
