<svg width="24" height="24" viewBox="0 0 24 24" fill="none" xmlns="http://www.w3.org/2000/svg">
<path d="M18.1 5C18.5971 5 19 5.40294 19 5.9V6.1C19 6.59706 18.5971 7 18.1 7H15.9C15.4029 7 15 6.59706 15 6.1V5.9C15 5.40294 15.4029 5 15.9 5H18.1ZM8.1 5C8.59706 5 9 5.40294 9 5.9V10.1C9 10.5971 8.59706 11 8.1 11H5.9C5.40294 11 5 10.5971 5 10.1V5.9C5 5.40294 5.40294 5 5.9 5H8.1ZM18.1 13C18.5971 13 19 13.4029 19 13.9V18.1C19 18.5971 18.5971 19 18.1 19H15.9C15.4029 19 15 18.5971 15 18.1V13.9C15 13.4029 15.4029 13 15.9 13H18.1ZM8.1 17C8.59706 17 9 17.4029 9 17.9V18.1C9 18.5971 8.59706 19 8.1 19H5.9C5.40294 19 5 18.5971 5 18.1V17.9C5 17.4029 5.40294 17 5.9 17H8.1ZM21 3.9C21 3.40294 20.5971 3 20.1 3H13.9C13.4029 3 13 3.40294 13 3.9V8.1C13 8.59706 13.4029 9 13.9 9H20.1C20.5971 9 21 8.59706 21 8.1V3.9ZM11 3.9C11 3.40294 10.5971 3 10.1 3H3.9C3.40294 3 3 3.40294 3 3.9V12.1C3 12.5971 3.40294 13 3.9 13H10.1C10.5971 13 11 12.5971 11 12.1V3.9ZM21 11.9C21 11.4029 20.5971 11 20.1 11H13.9C13.4029 11 13 11.4029 13 11.9V20.1C13 20.5971 13.4029 21 13.9 21H20.1C20.5971 21 21 20.5971 21 20.1V11.9ZM11 15.9C11 15.4029 10.5971 15 10.1 15H3.9C3.40294 15 3 15.4029 3 15.9V20.1C3 20.5971 3.40294 21 3.9 21H10.1C10.5971 21 11 20.5971 11 20.1V15.9Z" fill="#707070"/>
</svg>
