<svg width="115" height="115" viewBox="0 0 115 115" fill="none" xmlns="http://www.w3.org/2000/svg">
<g id="Deskbell" opacity="0.2">
<path id="Vector" d="M101.624 95.8507L100.442 92.3019C99.9514 90.8338 98.5786 89.8438 97.0315 89.8438H61.094V84.4531H102.422C104.406 84.4531 106.016 82.8431 106.016 80.8594C106.016 78.8756 104.406 77.2656 102.422 77.2656H100.625V75.4688C100.625 52.9 83.1973 34.3383 61.094 32.5055V28.75H66.4846C68.4683 28.75 70.0783 27.14 70.0783 25.1562C70.0783 23.1725 68.4683 21.5625 66.4846 21.5625H48.5158C46.5321 21.5625 44.9221 23.1725 44.9221 25.1562C44.9221 27.14 46.5321 28.75 48.5158 28.75H53.9065V32.5055C31.8031 34.3383 14.3752 52.9 14.3752 75.4688V77.2656H12.5783C10.5946 77.2656 8.98459 78.8756 8.98459 80.8594C8.98459 82.8431 10.5946 84.4531 12.5783 84.4531H53.9065V89.8438H17.969C16.4219 89.8438 15.049 90.8338 14.5603 92.3019L13.3779 95.8507C11.9764 100.055 9.57935 103.935 6.4456 107.069C5.41779 108.096 5.11053 109.642 5.66576 110.984C6.22099 112.328 7.53092 113.203 8.98459 113.203H106.016C107.47 113.203 108.779 112.328 109.336 110.984C109.893 109.642 109.586 108.096 108.557 107.069C105.423 103.933 103.024 100.055 101.624 95.8507ZM21.5627 75.4688C21.5627 55.6528 37.6843 39.5312 57.5002 39.5312C77.3161 39.5312 93.4377 55.6528 93.4377 75.4688V77.2656H21.5627V75.4688ZM16.4362 106.016C18.0031 103.549 19.2717 100.893 20.1953 98.1219L20.5583 97.0312H94.4404L94.8033 98.1219C95.7269 100.893 96.9955 103.549 98.5624 106.016H16.4362ZM57.5002 16.1719C59.484 16.1719 61.094 14.5619 61.094 12.5781V5.39062C61.094 3.40688 59.484 1.79688 57.5002 1.79688C55.5165 1.79688 53.9065 3.40688 53.9065 5.39062V12.5781C53.9065 14.5619 55.5165 16.1719 57.5002 16.1719ZM29.2336 21.1151C29.9002 22.2687 31.1059 22.912 32.3494 22.912C32.9585 22.912 33.5766 22.7574 34.1426 22.4286C35.8622 21.4367 36.4498 19.2391 35.4579 17.5195L31.8642 11.2952C30.8705 9.57914 28.6729 8.98617 26.9533 9.98164C25.2337 10.9735 24.6462 13.1711 25.638 14.8907L29.2336 21.1151ZM12.1327 40.8448C12.6987 41.1736 13.3169 41.3281 13.926 41.3281C15.1676 41.3281 16.3769 40.683 17.0418 39.5312C18.0337 37.8116 17.4461 35.6141 15.7265 34.6222L9.50209 31.0284C7.78428 30.0348 5.5849 30.6241 4.59482 32.3438C3.60295 34.0634 4.19053 36.2609 5.91014 37.2528L12.1327 40.8448ZM80.8596 22.4304C81.4256 22.7574 82.0437 22.9137 82.6529 22.9137C83.8945 22.9137 85.1038 22.2687 85.7687 21.1169L89.3624 14.8925C90.3543 13.1729 89.7667 10.9753 88.0471 9.98344C86.3293 8.98797 84.1299 9.57914 83.138 11.2987L79.5443 17.5231C78.5506 19.2409 79.14 21.4385 80.8596 22.4304ZM110.406 32.3438C109.412 30.6241 107.216 30.0348 105.497 31.0284L99.2722 34.6222C97.5526 35.6141 96.965 37.8116 97.9569 39.5312C98.6235 40.6848 99.8292 41.3281 101.073 41.3281C101.682 41.3281 102.3 41.1736 102.866 40.8448L109.09 37.251C110.81 36.2591 111.399 34.0616 110.406 32.3438Z" fill="url(#paint0_linear_641_4953)"/>
</g>
<defs>
<linearGradient id="paint0_linear_641_4953" x1="57.5006" y1="1.79687" x2="57.5006" y2="113.203" gradientUnits="userSpaceOnUse">
<stop stop-color="#01CBD5"/>
<stop offset="1" stop-color="#008DF1"/>
</linearGradient>
</defs>
</svg>
