<svg xmlns="http://www.w3.org/2000/svg" width="25" height="24" viewBox="0 0 25 24" fill="none">
  <mask id="mask0_1194_1662" style="mask-type:alpha" maskUnits="userSpaceOnUse" x="0" y="0" width="25" height="24">
    <rect x="0.5" width="24" height="24" fill="#D9D9D9"/>
  </mask>
  <g mask="url(#mask0_1194_1662)">
    <path d="M2.84521 19.9997V16.2497L12.1529 7.19972L16.0096 10.9497L6.70198 19.9997H2.84521ZM4.90215 17.9997H5.82778L13.1299 10.9497L12.1529 9.99972L4.90215 17.0997V17.9997ZM17.1667 9.84972L13.3099 6.09972L15.1611 4.29972C15.3497 4.09972 15.5897 4.00389 15.8811 4.01222C16.1725 4.02055 16.4124 4.11639 16.601 4.29972L19.0179 6.64972C19.2065 6.83305 19.3007 7.06222 19.3007 7.33722C19.3007 7.61222 19.2065 7.84972 19.0179 8.04972L17.1667 9.84972Z" fill="#9C9C9C"/>
  </g>
</svg>