<svg width="961" height="676" viewBox="0 0 961 676" fill="none" xmlns="http://www.w3.org/2000/svg">
<path d="M959.798 604.906V607.391L843.366 674.609H839.065L959.798 604.906Z" fill="#F0F6FE" fill-opacity="0.07"/>
<path d="M959.797 642.27V644.754L908.08 674.608H903.779L959.797 642.27Z" fill="#F0F6FE" fill-opacity="0.07"/>
<path d="M959.798 415.408V417.893L515.15 674.609H510.85L959.798 415.408Z" fill="#F0F6FE" fill-opacity="0.07"/>
<path d="M959.796 453.441V455.926L581.029 674.609H576.729L959.796 453.441Z" fill="#F0F6FE" fill-opacity="0.07"/>
<path d="M959.799 491.475V493.959L646.912 674.609H642.611L959.799 491.475Z" fill="#F0F6FE" fill-opacity="0.07"/>
<path d="M959.796 528.84V531.324L711.603 674.609H707.322L959.796 528.84Z" fill="#F0F6FE" fill-opacity="0.07"/>
<path d="M959.797 566.875V569.36L777.485 674.611H773.185L959.797 566.875Z" fill="#F0F6FE" fill-opacity="0.07"/>
<path d="M960 187.5V190L123.022 675.61H118.741L960 187.5Z" fill="#F0F6FE" fill-opacity="0.07"/>
<path d="M959.796 226.561V229.045L188.041 674.61H183.741L959.796 226.561Z" fill="#F0F6FE" fill-opacity="0.07"/>
<path d="M959.797 264.596V267.08L253.922 674.612H249.622L959.797 264.596Z" fill="#F0F6FE" fill-opacity="0.07"/>
<path d="M959.795 301.957V304.423L318.616 674.609H314.335L959.795 301.957Z" fill="#F0F6FE" fill-opacity="0.07"/>
<path d="M959.797 340.029V342.495L384.555 674.609H380.273L959.797 340.029Z" fill="#F0F6FE" fill-opacity="0.07"/>
<path d="M959.797 378.062V380.528L450.435 674.609H446.154L959.797 378.062Z" fill="#F0F6FE" fill-opacity="0.07"/>
<path d="M318.439 -43.875H322.739L0.983398 141.897V139.412L318.439 -43.875Z" fill="#F0F6FE" fill-opacity="0.07"/>
<path d="M960 1.01179V3.49638L-20.5941 569.641V567.156L960 1.01179Z" fill="#F0F6FE" fill-opacity="0.07"/>
<path d="M960.031 36.752V39.2366L-18.5762 604.234L-18.9585 601.979L960.031 36.752Z" fill="#F0F6FE" fill-opacity="0.07"/>
<path d="M960 73V76.5L-11.9585 639.812V637.327L960 73Z" fill="#F0F6FE" fill-opacity="0.07"/>
<path d="M960 112V115L3.64111 668.577V666.092L960 112Z" fill="#F0F6FE" fill-opacity="0.07"/>
<path d="M960 150.5V153.5L57.5884 674.884H53.2881L960 150.5Z" fill="#F0F6FE" fill-opacity="0.07"/>
<path d="M0.983398 290.954L566.038 -35.2733L572.498 -36.5156L0.983398 293.439V290.954Z" fill="#F0F6FE" fill-opacity="0.07"/>
<path d="M384.777 -43.875H389.078L0.983398 180.198V177.713L384.777 -43.875Z" fill="#F0F6FE" fill-opacity="0.07"/>
<path d="M188.379 -43.875H192.661L0.983398 66.7852V64.3006L188.379 -43.875Z" fill="#F0F6FE" fill-opacity="0.07"/>
<path d="M253.075 -43.875H257.375L0.983398 104.15V101.665L253.075 -43.875Z" fill="#F0F6FE" fill-opacity="0.07"/>
<path d="M-0.105957 27.4945L122.213 -43.1445H126.513L-0.105957 29.96V27.4945Z" fill="#F0F6FE" fill-opacity="0.07"/>
<path d="M-6.5 522.153L960 -38V-35.5L-7.33057 524.619L-6.5 522.153Z" fill="#F0F6FE" fill-opacity="0.07"/>
<path d="M0.983398 329.255L632.377 -35.2734L633.448 -33.4195L0.983398 331.74V329.255Z" fill="#F0F6FE" fill-opacity="0.07"/>
<path d="M0.983398 366.619L688.51 -30.3242L689.599 -28.4703L0.983398 369.104V366.619Z" fill="#F0F6FE" fill-opacity="0.07"/>
<path d="M0.983398 404.367L762.456 -35.2733L768.915 -36.5156L0.983398 406.832V404.367Z" fill="#F0F6FE" fill-opacity="0.07"/>
<path d="M0.983398 215.862L435.96 -35.2734L437.03 -33.4195L0.983398 218.347V215.862Z" fill="#F0F6FE" fill-opacity="0.07"/>
<path d="M0.983398 253.226L492.093 -30.3242L493.182 -28.4703L0.983398 255.691V253.226Z" fill="#F0F6FE" fill-opacity="0.07"/>
<path d="M47.5 452L897.5 -38.5H902L50.5 453.5L47.5 452Z" fill="#F0F6FE" fill-opacity="0.07"/>
<path d="M-29.9976 460.134L832.407 -37.7793L833.477 -35.9063L-29.9976 462.619V460.134Z" fill="#F0F6FE" fill-opacity="0.07"/>
</svg>
