<svg xmlns="http://www.w3.org/2000/svg" width="24" height="24" viewBox="0 0 24 24" fill="none">
<mask id="mask0_301_162594" style="mask-type:alpha" maskUnits="userSpaceOnUse" x="0" y="0" width="24" height="24">
<rect width="24" height="24" fill="#D9D9D9"/>
</mask>
<g mask="url(#mask0_301_162594)">
<path d="M14.75 16.5H16.25V15H17C17.2833 15 17.5208 14.9042 17.7125 14.7125C17.9042 14.5208 18 14.2833 18 14V10C18 9.71667 17.9042 9.47917 17.7125 9.2875C17.5208 9.09583 17.2833 9 17 9H14C13.7167 9 13.4792 9.09583 13.2875 9.2875C13.0958 9.47917 13 9.71667 13 10V14C13 14.2833 13.0958 14.5208 13.2875 14.7125C13.4792 14.9042 13.7167 15 14 15H14.75V16.5ZM6 15H7.5V13H9.5V15H11V9H9.5V11.5H7.5V9H6V15ZM14.5 13.5V10.5H16.5V13.5H14.5ZM4 20C3.45 20 2.97917 19.8042 2.5875 19.4125C2.19583 19.0208 2 18.55 2 18V6C2 5.45 2.19583 4.97917 2.5875 4.5875C2.97917 4.19583 3.45 4 4 4H20C20.55 4 21.0208 4.19583 21.4125 4.5875C21.8042 4.97917 22 5.45 22 6V18C22 18.55 21.8042 19.0208 21.4125 19.4125C21.0208 19.8042 20.55 20 20 20H4ZM4 18H20V6H4V18Z" fill="#585858"/>
</g>
</svg>