<svg width="880" height="724" viewBox="0 0 880 724" fill="none" xmlns="http://www.w3.org/2000/svg">
<path d="M5.48975 585.345V587.597L108.038 648.533H111.826L5.48975 585.345Z" fill="#F0F6FE" fill-opacity="0.07"/>
<path d="M5.48975 619.218V621.47L51.0576 648.534H54.8283L5.48975 619.218Z" fill="#F0F6FE" fill-opacity="0.07"/>
<path d="M5.48975 413.557V415.809L397.117 648.535H400.905L5.48975 413.557Z" fill="#F0F6FE" fill-opacity="0.07"/>
<path d="M5.48975 448.035V450.287L339.093 648.534H342.88L5.48975 448.035Z" fill="#F0F6FE" fill-opacity="0.07"/>
<path d="M5.48975 482.515V484.767L281.085 648.535H284.856L5.48975 482.515Z" fill="#F0F6FE" fill-opacity="0.07"/>
<path d="M5.48975 516.388V518.641L224.087 648.535H227.875L5.48975 516.388Z" fill="#F0F6FE" fill-opacity="0.07"/>
<path d="M5.48975 550.868V553.12L166.063 648.536H169.85L5.48975 550.868Z" fill="#F0F6FE" fill-opacity="0.07"/>
<path d="M1.61832 206.024V208.277L742.487 648.536H746.275L1.61832 206.024Z" fill="#F0F6FE" fill-opacity="0.07"/>
<path d="M5.48975 242.356V244.609L685.22 648.535H689.007L5.48975 242.356Z" fill="#F0F6FE" fill-opacity="0.07"/>
<path d="M5.48975 276.838V279.09L627.195 648.538H630.983L5.48975 276.838Z" fill="#F0F6FE" fill-opacity="0.07"/>
<path d="M5.48975 310.708V312.943L570.214 648.534H573.985L5.48975 310.708Z" fill="#F0F6FE" fill-opacity="0.07"/>
<path d="M5.48975 345.221V347.456L512.14 648.534H515.91L5.48975 345.221Z" fill="#F0F6FE" fill-opacity="0.07"/>
<path d="M5.48975 379.701V381.936L454.115 648.535H457.903L5.48975 379.701Z" fill="#F0F6FE" fill-opacity="0.07"/>
<path d="M594.154 9.88528H590.366L873.755 178.296V176.044L594.154 9.88528Z" fill="#F0F6FE" fill-opacity="0.07"/>
<path d="M0 33.9903V36.2427L863.685 549.48V547.228L0 33.9903Z" fill="#F0F6FE" fill-opacity="0.07"/>
<path d="M14.1145 75.0435V77.294L873.4 589.057L873.736 587.014L14.1145 75.0435Z" fill="#F0F6FE" fill-opacity="0.07"/>
<path d="M14.092 110.506V112.741L876.346 625.147V622.895L14.092 110.506Z" fill="#F0F6FE" fill-opacity="0.07"/>
<path d="M1.61832 137.689V139.924L846.753 642.159V639.907L1.61832 137.689Z" fill="#F0F6FE" fill-opacity="0.07"/>
<path d="M1.61832 172.169V174.404L798.357 647.877H802.145L1.61832 172.169Z" fill="#F0F6FE" fill-opacity="0.07"/>
<path d="M873.755 312.518L376.077 16.7766L370.388 15.6504L873.755 314.77V312.518Z" fill="#F0F6FE" fill-opacity="0.07"/>
<path d="M535.725 9.88528H531.938L873.755 213.018V210.766L535.725 9.88528Z" fill="#F0F6FE" fill-opacity="0.07"/>
<path d="M714.005 13.5116H710.218L873.736 112.665V109.039L714.005 13.5116Z" fill="#F0F6FE" fill-opacity="0.07"/>
<path d="M657.008 13.5116H653.22L873.736 147.568V144.848L657.008 13.5116Z" fill="#F0F6FE" fill-opacity="0.07"/>
<path d="M880 44.338L829.264 14.1731H825.477L880 46.5904V44.338Z" fill="#F0F6FE" fill-opacity="0.07"/>
<path d="M872.27 518.485L18.1124 10.8787L12.4227 9.75247L872.27 520.72V518.485Z" fill="#F0F6FE" fill-opacity="0.07"/>
<path d="M873.754 348.146L317.648 17.683L316.705 19.3637L873.754 350.399V348.146Z" fill="#F0F6FE" fill-opacity="0.07"/>
<path d="M873.754 382.018L268.208 22.1697L267.266 23.8504L873.754 384.271V382.018Z" fill="#F0F6FE" fill-opacity="0.07"/>
<path d="M873.754 417.145L203.08 18.5897L197.391 17.4635L873.754 419.38V417.145Z" fill="#F0F6FE" fill-opacity="0.07"/>
<path d="M873.755 246.256L490.645 18.5896L489.702 20.2702L873.755 248.509V246.256Z" fill="#F0F6FE" fill-opacity="0.07"/>
<path d="M873.756 278.315L441.206 21.2632L440.264 22.9438L873.756 280.55V278.315Z" fill="#F0F6FE" fill-opacity="0.07"/>
<path d="M873.96 484.676L73.5344 9.01947L72.5917 10.7174L873.96 486.912V484.676Z" fill="#F0F6FE" fill-opacity="0.07"/>
<path d="M873.736 451.383L114.183 0L113.223 1.69797L873.736 453.635V451.383Z" fill="#F0F6FE" fill-opacity="0.07"/>
<path d="M873.558 659.682V661.935L771.009 722.871H767.222L873.558 659.682Z" fill="#F0F6FE" fill-opacity="0.07"/>
<path d="M873.558 693.554V695.807L828.006 722.87H824.219L873.558 693.554Z" fill="#F0F6FE" fill-opacity="0.07"/>
<path d="M873.558 487.893V490.146L481.93 722.872H478.142L873.558 487.893Z" fill="#F0F6FE" fill-opacity="0.07"/>
<path d="M873.556 522.372V524.625L539.953 722.871H536.166L873.556 522.372Z" fill="#F0F6FE" fill-opacity="0.07"/>
<path d="M873.559 556.851V559.104L597.98 722.871H594.193L873.559 556.851Z" fill="#F0F6FE" fill-opacity="0.07"/>
<path d="M873.556 590.724V592.977L654.958 722.872H651.188L873.556 590.724Z" fill="#F0F6FE" fill-opacity="0.07"/>
<path d="M873.557 625.205V627.458L712.984 722.873H709.196L873.557 625.205Z" fill="#F0F6FE" fill-opacity="0.07"/>
<path d="M873.736 281.283V283.55L136.56 723.779H132.789L873.736 281.283Z" fill="#F0F6FE" fill-opacity="0.07"/>
<path d="M873.556 316.694V318.946L193.826 722.872H190.039L873.556 316.694Z" fill="#F0F6FE" fill-opacity="0.07"/>
<path d="M873.557 351.174V353.427L251.851 722.874H248.064L873.557 351.174Z" fill="#F0F6FE" fill-opacity="0.07"/>
<path d="M873.556 385.044V387.279L308.831 722.871H305.06L873.556 385.044Z" fill="#F0F6FE" fill-opacity="0.07"/>
<path d="M873.557 419.559V421.794L366.907 722.872H363.136L873.557 419.559Z" fill="#F0F6FE" fill-opacity="0.07"/>
<path d="M873.557 454.038V456.273L424.932 722.871H421.161L873.557 454.038Z" fill="#F0F6FE" fill-opacity="0.07"/>
<path d="M308.675 71.5306H312.462L29.0728 239.942V237.689L308.675 71.5306Z" fill="#F0F6FE" fill-opacity="0.07"/>
<path d="M873.736 112.223V114.475L10.068 627.712V625.46L873.736 112.223Z" fill="#F0F6FE" fill-opacity="0.07"/>
<path d="M873.763 144.623V146.875L11.8455 659.073L11.5088 657.029L873.763 144.623Z" fill="#F0F6FE" fill-opacity="0.07"/>
<path d="M873.736 177.483V180.656L17.6741 691.326V689.073L873.736 177.483Z" fill="#F0F6FE" fill-opacity="0.07"/>
<path d="M873.736 212.839V215.559L31.4136 717.403V715.151L873.736 212.839Z" fill="#F0F6FE" fill-opacity="0.07"/>
<path d="M873.736 247.741V250.461L78.9282 723.121H75.1407L873.736 247.741Z" fill="#F0F6FE" fill-opacity="0.07"/>
<path d="M29.0728 375.069L526.75 79.3281L532.44 78.2019L29.0728 377.322V375.069Z" fill="#F0F6FE" fill-opacity="0.07"/>
<path d="M367.103 71.5306H370.891L29.0728 274.663V272.411L367.103 71.5306Z" fill="#F0F6FE" fill-opacity="0.07"/>
<path d="M194.124 71.5306H197.894L29.0728 171.849V169.597L194.124 71.5306Z" fill="#F0F6FE" fill-opacity="0.07"/>
<path d="M251.104 71.5306H254.892L29.0728 205.722V203.47L251.104 71.5306Z" fill="#F0F6FE" fill-opacity="0.07"/>
<path d="M28.1134 102.357L78.866 72.1921H82.6366L28.1134 104.609V102.357Z" fill="#F0F6FE" fill-opacity="0.07"/>
<path d="M28.1134 136.23L135.847 72.1921H139.634L28.1134 138.465V136.23Z" fill="#F0F6FE" fill-opacity="0.07"/>
<path d="M22.4817 584.662L873.736 76.8564V79.1228L21.7502 586.898L22.4817 584.662Z" fill="#F0F6FE" fill-opacity="0.07"/>
<path d="M29.0728 409.792L585.179 79.329L586.122 81.0097L29.0728 412.045V409.792Z" fill="#F0F6FE" fill-opacity="0.07"/>
<path d="M29.0728 443.663L634.619 83.8148L635.578 85.4954L29.0728 445.916V443.663Z" fill="#F0F6FE" fill-opacity="0.07"/>
<path d="M29.0728 477.883L699.747 79.3281L705.436 78.2019L29.0728 480.118V477.883Z" fill="#F0F6FE" fill-opacity="0.07"/>
<path d="M29.0728 306.996L412.183 79.329L413.125 81.0097L29.0728 309.248V306.996Z" fill="#F0F6FE" fill-opacity="0.07"/>
<path d="M29.0728 340.867L461.622 83.8148L462.582 85.4954L29.0728 343.102V340.867Z" fill="#F0F6FE" fill-opacity="0.07"/>
<path d="M70.0426 521.065L818.688 76.4027H822.652L72.6849 522.425L70.0426 521.065Z" fill="#F0F6FE" fill-opacity="0.07"/>
<path d="M1.78604 528.44L761.357 77.0571L762.299 78.755L1.78604 530.692V528.44Z" fill="#F0F6FE" fill-opacity="0.07"/>
</svg>
