<svg width="336" height="686" viewBox="0 0 336 686" fill="none" xmlns="http://www.w3.org/2000/svg">
<path d="M332.446 174.12C334.409 174.12 336 175.711 336 177.673V253.086C336 255.048 334.409 256.639 332.446 256.639V174.12Z" fill="#524550"/>
<rect x="12.3553" y="10.3816" width="309.709" height="664.424" rx="41.5265" stroke="#1D1D1B" stroke-width="20.7632"/>
<rect x="5.08812" y="3.11449" width="324.243" height="678.958" rx="48.7936" stroke="#5E4C5C" stroke-width="6.22897"/>
<rect x="4.04996" y="2.07632" width="326.32" height="681.034" rx="49.8318" stroke="#AA98A8" stroke-width="4.15265"/>
<rect x="3.01179" y="1.03816" width="328.396" height="683.111" rx="50.8699" stroke="#4E424C" stroke-width="2.07632"/>
<path d="M1.97461 135.032C0.884316 135.032 0.000459152 134.148 0.000459248 133.058L0.00046125 110.157C0.000461345 109.067 0.884318 108.183 1.97461 108.183L1.97461 135.032Z" fill="#524550"/>
<path d="M1.97461 207.68C0.884315 207.68 0.000456887 206.797 0.000456983 205.706L0.00046109 158.722C0.000461185 157.631 0.88432 156.747 1.97461 156.747L1.97461 207.68Z" fill="#524550"/>
<path d="M1.97461 274.012C0.884315 274.012 0.000456887 273.128 0.000456983 272.038L0.000461228 223.474C0.000461324 222.383 0.88432 221.499 1.97461 221.499L1.97461 274.012Z" fill="#524550"/>
<rect x="130.688" y="34.3501" width="75.4125" height="21.7156" rx="10.8578" fill="#1D1D1B"/>
<circle cx="191.492" cy="45.4052" r="5.13278" fill="#363F3C"/>
<circle cx="191.492" cy="45.4053" r="3.9483" fill="#2B3840"/>
<circle cx="191.492" cy="45.4052" r="2.76381" fill="#001C48"/>
</svg>
