<svg xmlns="http://www.w3.org/2000/svg" width="24" height="24" viewBox="0 0 24 24" fill="none">
<mask id="mask0_2966_18126" style="mask-type:alpha" maskUnits="userSpaceOnUse" x="0" y="0" width="24" height="24">
<rect width="24" height="24" fill="#D9D9D9"/>
</mask>
<g mask="url(#mask0_2966_18126)">
<circle cx="12" cy="12" r="12" fill="#F100E7"/>
<path d="M6.4 17.2C6.015 17.2 5.68542 17.0629 5.41125 16.7888C5.13708 16.5146 5 16.185 5 15.8V7.4C5 7.015 5.13708 6.68542 5.41125 6.41125C5.68542 6.13708 6.015 6 6.4 6H17.6C17.985 6 18.3146 6.13708 18.5887 6.41125C18.8629 6.68542 19 7.015 19 7.4V15.8C19 16.185 18.8629 16.5146 18.5887 16.7888C18.3146 17.0629 17.985 17.2 17.6 17.2H6.4ZM8.15 13.7H8.955V9.5H8.325L7.1 10.375L7.52 11.005L8.15 10.55V13.7ZM10.32 13.7H13.05V13H11.405L11.37 12.965C11.615 12.7317 11.8163 12.5333 11.9738 12.37C12.1313 12.2067 12.2567 12.0783 12.35 11.985C12.56 11.775 12.7175 11.565 12.8225 11.355C12.9275 11.145 12.98 10.9233 12.98 10.69C12.98 10.3517 12.8517 10.0688 12.595 9.84125C12.3383 9.61375 12.0117 9.5 11.615 9.5C11.3117 9.5 11.0375 9.5875 10.7925 9.7625C10.5475 9.9375 10.3783 10.165 10.285 10.445L10.985 10.725C11.0433 10.5733 11.1279 10.4538 11.2387 10.3663C11.3496 10.2788 11.475 10.235 11.615 10.235C11.79 10.235 11.9329 10.2817 12.0437 10.375C12.1546 10.4683 12.21 10.585 12.21 10.725C12.21 10.8533 12.1867 10.9729 12.14 11.0838C12.0933 11.1946 11.9883 11.3317 11.825 11.495L10.32 13V13.7ZM15.5 13.7C15.92 13.7 16.2583 13.5833 16.515 13.35C16.7717 13.1167 16.9 12.8133 16.9 12.44C16.9 12.23 16.8417 12.0433 16.725 11.88C16.6083 11.7167 16.445 11.5883 16.235 11.495V11.46C16.3983 11.3667 16.5267 11.2471 16.62 11.1013C16.7133 10.9554 16.76 10.7833 16.76 10.585C16.76 10.27 16.6375 10.0104 16.3925 9.80625C16.1475 9.60208 15.8383 9.5 15.465 9.5C15.1733 9.5 14.9021 9.58458 14.6512 9.75375C14.4004 9.92292 14.24 10.13 14.17 10.375L14.87 10.655C14.9167 10.515 14.9925 10.4042 15.0975 10.3225C15.2025 10.2408 15.325 10.2 15.465 10.2C15.6167 10.2 15.7421 10.2438 15.8413 10.3313C15.9404 10.4188 15.99 10.5267 15.99 10.655C15.99 10.8183 15.9317 10.9467 15.815 11.04C15.6983 11.1333 15.5467 11.18 15.36 11.18H15.045V11.88H15.395C15.6283 11.88 15.8092 11.9267 15.9375 12.02C16.0658 12.1133 16.13 12.2417 16.13 12.405C16.13 12.5567 16.0658 12.6879 15.9375 12.7988C15.8092 12.9096 15.6633 12.965 15.5 12.965C15.3017 12.965 15.15 12.9213 15.045 12.8338C14.94 12.7463 14.8467 12.5917 14.765 12.37L14.065 12.65C14.1467 12.9883 14.3129 13.2479 14.5638 13.4288C14.8146 13.6096 15.1267 13.7 15.5 13.7ZM6.4 15.8H17.6V7.4H6.4V15.8Z" fill="white"/>
</g>
</svg>