<svg xmlns="http://www.w3.org/2000/svg" width="25" height="24" viewBox="0 0 25 24" fill="none">
  <mask id="mask0_1194_1666" style="mask-type:alpha" maskUnits="userSpaceOnUse" x="0" y="0" width="25" height="24">
    <rect x="0.5" width="24" height="24" fill="#D9D9D9"/>
  </mask>
  <g mask="url(#mask0_1194_1666)">
    <path d="M16.5 8V5H8.5V8H6.5V3H18.5V8H16.5ZM18.5 12.5C18.7833 12.5 19.0208 12.4042 19.2125 12.2125C19.4042 12.0208 19.5 11.7833 19.5 11.5C19.5 11.2167 19.4042 10.9792 19.2125 10.7875C19.0208 10.5958 18.7833 10.5 18.5 10.5C18.2167 10.5 17.9792 10.5958 17.7875 10.7875C17.5958 10.9792 17.5 11.2167 17.5 11.5C17.5 11.7833 17.5958 12.0208 17.7875 12.2125C17.9792 12.4042 18.2167 12.5 18.5 12.5ZM16.5 19V15H8.5V19H16.5ZM18.5 21H6.5V17H2.5V11C2.5 10.15 2.79167 9.4375 3.375 8.8625C3.95833 8.2875 4.66667 8 5.5 8H19.5C20.35 8 21.0625 8.2875 21.6375 8.8625C22.2125 9.4375 22.5 10.15 22.5 11V17H18.5V21ZM20.5 15V11C20.5 10.7167 20.4042 10.4792 20.2125 10.2875C20.0208 10.0958 19.7833 10 19.5 10H5.5C5.21667 10 4.97917 10.0958 4.7875 10.2875C4.59583 10.4792 4.5 10.7167 4.5 11V15H6.5V13H18.5V15H20.5Z" fill="#9C9C9C"/>
  </g>
</svg>