<svg xmlns="http://www.w3.org/2000/svg" width="163" height="163" viewBox="0 0 163 163" fill="none">
  <g clip-path="url(#clip0_301_162617)">
    <path d="M162.893 0.0991211H0.106445V162.886H162.893V0.0991211Z" fill="white"/>
    <path d="M9.6663 3.41016H3.41992V9.65654H9.6663V3.41016Z" fill="black"/>
    <path d="M15.9127 3.41016H9.6663V9.65654H15.9127V3.41016Z" fill="black"/>
    <path d="M22.1591 3.41016H15.9127V9.65654H22.1591V3.41016Z" fill="black"/>
    <path d="M28.4054 3.41016H22.1591V9.65654H28.4054V3.41016Z" fill="black"/>
    <path d="M34.6518 3.41016H28.4054V9.65654H34.6518V3.41016Z" fill="black"/>
    <path d="M40.8982 3.41016H34.6518V9.65654H40.8982V3.41016Z" fill="black"/>
    <path d="M47.1446 3.41016H40.8982V9.65654H47.1446V3.41016Z" fill="black"/>
    <path d="M59.6373 3.41016H53.3909V9.65654H59.6373V3.41016Z" fill="black"/>
    <path d="M72.1301 3.41016H65.8837V9.65654H72.1301V3.41016Z" fill="black"/>
    <path d="M78.3765 3.41016H72.1301V9.65654H78.3765V3.41016Z" fill="black"/>
    <path d="M90.8692 3.41016H84.6228V9.65654H90.8692V3.41016Z" fill="black"/>
    <path d="M97.1156 3.41016H90.8692V9.65654H97.1156V3.41016Z" fill="black"/>
    <path d="M103.362 3.41016H97.1156V9.65654H103.362V3.41016Z" fill="black"/>
    <path d="M109.608 3.41016H103.362V9.65654H109.608V3.41016Z" fill="black"/>
    <path d="M122.101 3.41016H115.855V9.65654H122.101V3.41016Z" fill="black"/>
    <path d="M128.347 3.41016H122.101V9.65654H128.347V3.41016Z" fill="black"/>
    <path d="M134.594 3.41016H128.347V9.65654H134.594V3.41016Z" fill="black"/>
    <path d="M140.84 3.41016H134.594V9.65654H140.84V3.41016Z" fill="black"/>
    <path d="M147.087 3.41016H140.84V9.65654H147.087V3.41016Z" fill="black"/>
    <path d="M153.333 3.41016H147.087V9.65654H153.333V3.41016Z" fill="black"/>
    <path d="M159.579 3.41016H153.333V9.65654H159.579V3.41016Z" fill="black"/>
    <path d="M9.6663 9.65654H3.41992V15.9029H9.6663V9.65654Z" fill="black"/>
    <path d="M47.1446 9.65654H40.8982L40.8982 15.9029H47.1446V9.65654Z" fill="black"/>
    <path d="M65.8837 9.65654H59.6373V15.9029H65.8837V9.65654Z" fill="black"/>
    <path d="M90.8692 9.65654H84.6228V15.9029H90.8692V9.65654Z" fill="black"/>
    <path d="M97.1156 9.65654H90.8692V15.9029H97.1156V9.65654Z" fill="black"/>
    <path d="M122.101 9.65654H115.855V15.9029H122.101V9.65654Z" fill="black"/>
    <path d="M159.579 9.65654H153.333V15.9029H159.579V9.65654Z" fill="black"/>
    <path d="M9.6663 15.9029H3.41992V22.1493H9.6663V15.9029Z" fill="black"/>
    <path d="M22.1591 15.9029H15.9127V22.1493H22.1591V15.9029Z" fill="black"/>
    <path d="M28.4054 15.9029H22.1591V22.1493H28.4054V15.9029Z" fill="black"/>
    <path d="M34.6518 15.9029H28.4054V22.1493H34.6518V15.9029Z" fill="black"/>
    <path d="M47.1446 15.9029H40.8982V22.1493H47.1446V15.9029Z" fill="black"/>
    <path d="M65.8837 15.9029H59.6373V22.1493H65.8837V15.9029Z" fill="black"/>
    <path d="M72.1301 15.9029H65.8837V22.1493H72.1301V15.9029Z" fill="black"/>
    <path d="M78.3765 15.9029H72.1301V22.1493H78.3765V15.9029Z" fill="black"/>
    <path d="M103.362 15.9029H97.1156L97.1156 22.1493H103.362V15.9029Z" fill="black"/>
    <path d="M109.608 15.9029H103.362V22.1493H109.608V15.9029Z" fill="black"/>
    <path d="M122.101 15.9029H115.855V22.1493H122.101V15.9029Z" fill="black"/>
    <path d="M134.594 15.9029H128.347V22.1493H134.594V15.9029Z" fill="black"/>
    <path d="M140.84 15.9029H134.594V22.1493H140.84V15.9029Z" fill="black"/>
    <path d="M147.087 15.9029H140.84V22.1493H147.087V15.9029Z" fill="black"/>
    <path d="M159.579 15.9029H153.333V22.1493H159.579V15.9029Z" fill="black"/>
    <path d="M9.6663 22.1493H3.41992V28.3957H9.6663V22.1493Z" fill="black"/>
    <path d="M22.1591 22.1493H15.9127V28.3957H22.1591V22.1493Z" fill="black"/>
    <path d="M28.4054 22.1493H22.1591V28.3957H28.4054V22.1493Z" fill="black"/>
    <path d="M34.6518 22.1493H28.4054V28.3957H34.6518V22.1493Z" fill="black"/>
    <path d="M47.1446 22.1493H40.8982V28.3957H47.1446V22.1493Z" fill="black"/>
    <path d="M59.6373 22.1493H53.3909V28.3957H59.6373V22.1493Z" fill="black"/>
    <path d="M78.3765 22.1493H72.1301V28.3957H78.3765V22.1493Z" fill="black"/>
    <path d="M122.101 22.1493H115.855V28.3957H122.101V22.1493Z" fill="black"/>
    <path d="M134.594 22.1493H128.347V28.3957H134.594V22.1493Z" fill="black"/>
    <path d="M140.84 22.1493H134.594V28.3957H140.84V22.1493Z" fill="black"/>
    <path d="M147.087 22.1493H140.84V28.3957H147.087V22.1493Z" fill="black"/>
    <path d="M159.579 22.1493H153.333V28.3957H159.579V22.1493Z" fill="black"/>
    <path d="M9.6663 28.3957H3.41992V34.642H9.6663V28.3957Z" fill="black"/>
    <path d="M22.1591 28.3957H15.9127V34.642H22.1591V28.3957Z" fill="black"/>
    <path d="M28.4054 28.3957H22.1591V34.642H28.4054V28.3957Z" fill="black"/>
    <path d="M34.6518 28.3957H28.4054V34.642H34.6518V28.3957Z" fill="black"/>
    <path d="M47.1446 28.3957H40.8982V34.642H47.1446V28.3957Z" fill="black"/>
    <path d="M59.6373 28.3957H53.3909V34.642H59.6373V28.3957Z" fill="black"/>
    <path d="M65.8837 28.3957H59.6373V34.642H65.8837V28.3957Z" fill="black"/>
    <path d="M72.1301 28.3957H65.8837V34.642H72.1301V28.3957Z" fill="black"/>
    <path d="M78.3765 28.3957H72.1301V34.642H78.3765V28.3957Z" fill="black"/>
    <path d="M84.6228 28.3957H78.3765V34.642H84.6228V28.3957Z" fill="black"/>
    <path d="M90.8692 28.3957H84.6228V34.642H90.8692V28.3957Z" fill="black"/>
    <path d="M97.1156 28.3957H90.8692V34.642H97.1156V28.3957Z" fill="black"/>
    <path d="M103.362 28.3957H97.1156V34.642H103.362V28.3957Z" fill="black"/>
    <path d="M122.101 28.3957H115.855V34.642H122.101V28.3957Z" fill="black"/>
    <path d="M134.594 28.3957H128.347V34.642H134.594V28.3957Z" fill="black"/>
    <path d="M140.84 28.3957H134.594V34.642H140.84V28.3957Z" fill="black"/>
    <path d="M147.087 28.3957H140.84V34.642H147.087V28.3957Z" fill="black"/>
    <path d="M159.579 28.3957H153.333V34.642H159.579V28.3957Z" fill="black"/>
    <path d="M9.6663 34.642H3.41992V40.8884H9.6663V34.642Z" fill="black"/>
    <path d="M47.1446 34.642H40.8982V40.8884H47.1446V34.642Z" fill="black"/>
    <path d="M59.6373 34.642H53.3909V40.8884H59.6373V34.642Z" fill="black"/>
    <path d="M65.8837 34.642H59.6373V40.8884H65.8837V34.642Z" fill="black"/>
    <path d="M78.3765 34.642H72.1301V40.8884H78.3765V34.642Z" fill="black"/>
    <path d="M84.6228 34.642H78.3765V40.8884H84.6228V34.642Z" fill="black"/>
    <path d="M103.362 34.642H97.1156L97.1156 40.8884H103.362V34.642Z" fill="black"/>
    <path d="M109.608 34.642H103.362V40.8884H109.608V34.642Z" fill="black"/>
    <path d="M122.101 34.642H115.855V40.8884H122.101V34.642Z" fill="black"/>
    <path d="M159.579 34.642H153.333V40.8884H159.579V34.642Z" fill="black"/>
    <path d="M9.6663 40.8884H3.41992V47.1348H9.6663V40.8884Z" fill="black"/>
    <path d="M15.9127 40.8884L9.6663 40.8884V47.1348H15.9127V40.8884Z" fill="black"/>
    <path d="M22.1591 40.8884H15.9127V47.1348H22.1591V40.8884Z" fill="black"/>
    <path d="M28.4054 40.8884H22.1591V47.1348H28.4054V40.8884Z" fill="black"/>
    <path d="M34.6518 40.8884H28.4054V47.1348H34.6518V40.8884Z" fill="black"/>
    <path d="M40.8982 40.8884L34.6518 40.8884V47.1348H40.8982L40.8982 40.8884Z" fill="black"/>
    <path d="M47.1446 40.8884H40.8982L40.8982 47.1348H47.1446V40.8884Z" fill="black"/>
    <path d="M59.6373 40.8884H53.3909V47.1348H59.6373V40.8884Z" fill="black"/>
    <path d="M72.1301 40.8884H65.8837V47.1348H72.1301V40.8884Z" fill="black"/>
    <path d="M84.6228 40.8884H78.3765V47.1348H84.6228V40.8884Z" fill="black"/>
    <path d="M97.1156 40.8884L90.8692 40.8884V47.1348H97.1156L97.1156 40.8884Z" fill="black"/>
    <path d="M109.608 40.8884H103.362V47.1348H109.608V40.8884Z" fill="black"/>
    <path d="M122.101 40.8884H115.855V47.1348H122.101V40.8884Z" fill="black"/>
    <path d="M128.347 40.8884L122.101 40.8884V47.1348H128.347V40.8884Z" fill="black"/>
    <path d="M134.594 40.8884H128.347V47.1348H134.594V40.8884Z" fill="black"/>
    <path d="M140.84 40.8884H134.594V47.1348H140.84V40.8884Z" fill="black"/>
    <path d="M147.087 40.8884H140.84V47.1348H147.087V40.8884Z" fill="black"/>
    <path d="M153.333 40.8884L147.087 40.8884V47.1348H153.333V40.8884Z" fill="black"/>
    <path d="M159.579 40.8884H153.333V47.1348H159.579V40.8884Z" fill="black"/>
    <path d="M59.6373 47.1348H53.3909V53.3812H59.6373V47.1348Z" fill="black"/>
    <path d="M78.3765 47.1348H72.1301V53.3812H78.3765V47.1348Z" fill="black"/>
    <path d="M103.362 47.1348H97.1156L97.1156 53.3812H103.362V47.1348Z" fill="black"/>
    <path d="M109.608 47.1348H103.362V53.3812H109.608V47.1348Z" fill="black"/>
    <path d="M9.6663 53.3812H3.41992V59.6276H9.6663V53.3812Z" fill="black"/>
    <path d="M15.9127 53.3812H9.6663V59.6276H15.9127V53.3812Z" fill="black"/>
    <path d="M22.1591 53.3812H15.9127V59.6276H22.1591V53.3812Z" fill="black"/>
    <path d="M34.6518 53.3812H28.4054V59.6276H34.6518V53.3812Z" fill="black"/>
    <path d="M47.1446 53.3812H40.8982V59.6276H47.1446V53.3812Z" fill="black"/>
    <path d="M59.6373 53.3812H53.3909V59.6276H59.6373V53.3812Z" fill="black"/>
    <path d="M65.8837 53.3812H59.6373V59.6276H65.8837V53.3812Z" fill="black"/>
    <path d="M72.1301 53.3812H65.8837V59.6276H72.1301V53.3812Z" fill="black"/>
    <path d="M78.3765 53.3812H72.1301V59.6276H78.3765V53.3812Z" fill="black"/>
    <path d="M84.6228 53.3812H78.3765V59.6276H84.6228V53.3812Z" fill="black"/>
    <path d="M90.8692 53.3812H84.6228V59.6276H90.8692V53.3812Z" fill="black"/>
    <path d="M97.1156 53.3812H90.8692V59.6276H97.1156L97.1156 53.3812Z" fill="black"/>
    <path d="M115.855 53.3812H109.608V59.6276H115.855V53.3812Z" fill="black"/>
    <path d="M122.101 53.3812H115.855V59.6276H122.101V53.3812Z" fill="black"/>
    <path d="M128.347 53.3812H122.101V59.6276H128.347V53.3812Z" fill="black"/>
    <path d="M134.594 53.3812H128.347V59.6276H134.594V53.3812Z" fill="black"/>
    <path d="M140.84 53.3812H134.594V59.6276H140.84V53.3812Z" fill="black"/>
    <path d="M159.579 53.3812H153.333V59.6276H159.579V53.3812Z" fill="black"/>
    <path d="M28.4054 59.6276H22.1591V65.8739H28.4054V59.6276Z" fill="black"/>
    <path d="M34.6518 59.6276H28.4054V65.8739H34.6518V59.6276Z" fill="black"/>
    <path d="M40.8982 59.6276H34.6518V65.8739H40.8982L40.8982 59.6276Z" fill="black"/>
    <path d="M59.6373 59.6276H53.3909V65.8739H59.6373V59.6276Z" fill="black"/>
    <path d="M65.8837 59.6276H59.6373V65.8739H65.8837V59.6276Z" fill="black"/>
    <path d="M72.1301 59.6276H65.8837V65.8739H72.1301V59.6276Z" fill="black"/>
    <path d="M84.6228 59.6276H78.3765V65.8739H84.6228V59.6276Z" fill="black"/>
    <path d="M115.855 59.6276H109.608V65.8739H115.855V59.6276Z" fill="black"/>
    <path d="M128.347 59.6276H122.101V65.8739H128.347V59.6276Z" fill="black"/>
    <path d="M134.594 59.6276H128.347V65.8739H134.594V59.6276Z" fill="black"/>
    <path d="M140.84 59.6276H134.594V65.8739H140.84V59.6276Z" fill="black"/>
    <path d="M147.087 59.6276H140.84V65.8739H147.087V59.6276Z" fill="black"/>
    <path d="M153.333 59.6276H147.087V65.8739H153.333V59.6276Z" fill="black"/>
    <path d="M159.579 59.6276H153.333V65.8739H159.579V59.6276Z" fill="black"/>
    <path d="M22.1591 65.8739H15.9127V72.1203H22.1591V65.8739Z" fill="black"/>
    <path d="M40.8982 65.8739H34.6518V72.1203H40.8982V65.8739Z" fill="black"/>
    <path d="M47.1446 65.8739H40.8982V72.1203H47.1446V65.8739Z" fill="black"/>
    <path d="M59.6373 65.8739H53.3909V72.1203H59.6373V65.8739Z" fill="black"/>
    <path d="M65.8837 65.8739H59.6373V72.1203H65.8837V65.8739Z" fill="black"/>
    <path d="M78.3765 65.8739H72.1301V72.1203H78.3765V65.8739Z" fill="black"/>
    <path d="M103.362 65.8739H97.1156V72.1203H103.362V65.8739Z" fill="black"/>
    <path d="M109.608 65.8739H103.362V72.1203H109.608V65.8739Z" fill="black"/>
    <path d="M115.855 65.8739H109.608V72.1203H115.855V65.8739Z" fill="black"/>
    <path d="M122.101 65.8739H115.855V72.1203H122.101V65.8739Z" fill="black"/>
    <path d="M140.84 65.8739H134.594V72.1203H140.84V65.8739Z" fill="black"/>
    <path d="M147.087 65.8739H140.84V72.1203H147.087V65.8739Z" fill="black"/>
    <path d="M9.6663 72.1203H3.41992V78.3667H9.6663V72.1203Z" fill="black"/>
    <path d="M22.1591 72.1203H15.9127V78.3667H22.1591V72.1203Z" fill="black"/>
    <path d="M34.6518 72.1203H28.4054V78.3667H34.6518V72.1203Z" fill="black"/>
    <path d="M40.8982 72.1203H34.6518V78.3667H40.8982V72.1203Z" fill="black"/>
    <path d="M72.1301 72.1203H65.8837V78.3667H72.1301V72.1203Z" fill="black"/>
    <path d="M78.3765 72.1203H72.1301V78.3667H78.3765V72.1203Z" fill="black"/>
    <path d="M84.6228 72.1203H78.3765V78.3667H84.6228V72.1203Z" fill="black"/>
    <path d="M97.1156 72.1203H90.8692V78.3667H97.1156L97.1156 72.1203Z" fill="black"/>
    <path d="M103.362 72.1203H97.1156L97.1156 78.3667H103.362V72.1203Z" fill="black"/>
    <path d="M115.855 72.1203H109.608V78.3667H115.855V72.1203Z" fill="black"/>
    <path d="M122.101 72.1203H115.855V78.3667H122.101V72.1203Z" fill="black"/>
    <path d="M15.9127 78.3667H9.6663V84.6131H15.9127V78.3667Z" fill="black"/>
    <path d="M28.4054 78.3667H22.1591V84.6131H28.4054V78.3667Z" fill="black"/>
    <path d="M34.6518 78.3667H28.4054V84.6131H34.6518V78.3667Z" fill="black"/>
    <path d="M47.1446 78.3667H40.8982L40.8982 84.6131H47.1446V78.3667Z" fill="black"/>
    <path d="M59.6373 78.3667H53.3909V84.6131H59.6373V78.3667Z" fill="black"/>
    <path d="M65.8837 78.3667H59.6373V84.6131H65.8837V78.3667Z" fill="black"/>
    <path d="M72.1301 78.3667H65.8837V84.6131H72.1301V78.3667Z" fill="black"/>
    <path d="M78.3765 78.3667H72.1301V84.6131H78.3765V78.3667Z" fill="black"/>
    <path d="M84.6228 78.3667H78.3765V84.6131H84.6228V78.3667Z" fill="black"/>
    <path d="M97.1156 78.3667H90.8692V84.6131H97.1156V78.3667Z" fill="black"/>
    <path d="M115.855 78.3667H109.608V84.6131H115.855V78.3667Z" fill="black"/>
    <path d="M128.347 78.3667H122.101V84.6131H128.347V78.3667Z" fill="black"/>
    <path d="M134.594 78.3667H128.347V84.6131H134.594V78.3667Z" fill="black"/>
    <path d="M147.087 78.3667H140.84V84.6131H147.087V78.3667Z" fill="black"/>
    <path d="M22.1591 84.6131H15.9127V90.8595H22.1591V84.6131Z" fill="black"/>
    <path d="M28.4054 84.6131H22.1591V90.8595H28.4054V84.6131Z" fill="black"/>
    <path d="M34.6518 84.6131H28.4054V90.8595H34.6518V84.6131Z" fill="black"/>
    <path d="M53.3909 84.6131H47.1446V90.8595H53.3909V84.6131Z" fill="black"/>
    <path d="M59.6373 84.6131H53.3909V90.8595H59.6373V84.6131Z" fill="black"/>
    <path d="M65.8837 84.6131H59.6373V90.8595H65.8837V84.6131Z" fill="black"/>
    <path d="M72.1301 84.6131H65.8837V90.8595H72.1301V84.6131Z" fill="black"/>
    <path d="M78.3765 84.6131H72.1301V90.8595H78.3765V84.6131Z" fill="black"/>
    <path d="M84.6228 84.6131H78.3765V90.8595H84.6228V84.6131Z" fill="black"/>
    <path d="M90.8692 84.6131H84.6228V90.8595H90.8692V84.6131Z" fill="black"/>
    <path d="M97.1156 84.6131H90.8692V90.8595H97.1156V84.6131Z" fill="black"/>
    <path d="M115.855 84.6131H109.608V90.8595H115.855V84.6131Z" fill="black"/>
    <path d="M134.594 84.6131H128.347V90.8595H134.594V84.6131Z" fill="black"/>
    <path d="M159.579 84.6131H153.333V90.8595H159.579V84.6131Z" fill="black"/>
    <path d="M9.6663 90.8595H3.41992V97.1058H9.6663V90.8595Z" fill="black"/>
    <path d="M22.1591 90.8595H15.9127V97.1058H22.1591V90.8595Z" fill="black"/>
    <path d="M34.6518 90.8595H28.4054V97.1058H34.6518V90.8595Z" fill="black"/>
    <path d="M40.8982 90.8595H34.6518V97.1058H40.8982V90.8595Z" fill="black"/>
    <path d="M47.1446 90.8595H40.8982V97.1058H47.1446V90.8595Z" fill="black"/>
    <path d="M65.8837 90.8595H59.6373V97.1058H65.8837V90.8595Z" fill="black"/>
    <path d="M90.8692 90.8595H84.6228V97.1058H90.8692V90.8595Z" fill="black"/>
    <path d="M109.608 90.8595H103.362V97.1058H109.608V90.8595Z" fill="black"/>
    <path d="M115.855 90.8595H109.608V97.1058H115.855V90.8595Z" fill="black"/>
    <path d="M128.347 90.8595H122.101V97.1058H128.347V90.8595Z" fill="black"/>
    <path d="M134.594 90.8595H128.347V97.1058H134.594V90.8595Z" fill="black"/>
    <path d="M140.84 90.8595H134.594V97.1058H140.84V90.8595Z" fill="black"/>
    <path d="M147.087 90.8595H140.84V97.1058H147.087V90.8595Z" fill="black"/>
    <path d="M153.333 90.8595H147.087V97.1058H153.333V90.8595Z" fill="black"/>
    <path d="M159.579 90.8595H153.333V97.1058H159.579V90.8595Z" fill="black"/>
    <path d="M53.3909 97.1058L47.1446 97.1058V103.352H53.3909V97.1058Z" fill="black"/>
    <path d="M65.8837 97.1058H59.6373V103.352H65.8837V97.1058Z" fill="black"/>
    <path d="M72.1301 97.1058L65.8837 97.1058V103.352H72.1301V97.1058Z" fill="black"/>
    <path d="M84.6228 97.1058L78.3765 97.1058V103.352H84.6228V97.1058Z" fill="black"/>
    <path d="M90.8692 97.1058H84.6228V103.352H90.8692V97.1058Z" fill="black"/>
    <path d="M97.1156 97.1058L90.8692 97.1058V103.352H97.1156V97.1058Z" fill="black"/>
    <path d="M109.608 97.1058H103.362V103.352H109.608V97.1058Z" fill="black"/>
    <path d="M115.855 97.1058H109.608V103.352H115.855V97.1058Z" fill="black"/>
    <path d="M128.347 97.1058H122.101V103.352H128.347V97.1058Z" fill="black"/>
    <path d="M134.594 97.1058H128.347V103.352H134.594V97.1058Z" fill="black"/>
    <path d="M140.84 97.1058H134.594V103.352H140.84V97.1058Z" fill="black"/>
    <path d="M147.087 97.1058H140.84V103.352H147.087V97.1058Z" fill="black"/>
    <path d="M15.9127 103.352H9.6663V109.599H15.9127V103.352Z" fill="black"/>
    <path d="M22.1591 103.352H15.9127V109.599H22.1591V103.352Z" fill="black"/>
    <path d="M28.4054 103.352H22.1591V109.599H28.4054V103.352Z" fill="black"/>
    <path d="M34.6518 103.352H28.4054V109.599H34.6518V103.352Z" fill="black"/>
    <path d="M40.8982 103.352H34.6518V109.599H40.8982V103.352Z" fill="black"/>
    <path d="M47.1446 103.352H40.8982V109.599H47.1446V103.352Z" fill="black"/>
    <path d="M53.3909 103.352H47.1446V109.599H53.3909V103.352Z" fill="black"/>
    <path d="M59.6373 103.352H53.3909V109.599H59.6373V103.352Z" fill="black"/>
    <path d="M65.8837 103.352H59.6373V109.599H65.8837V103.352Z" fill="black"/>
    <path d="M72.1301 103.352H65.8837V109.599H72.1301V103.352Z" fill="black"/>
    <path d="M84.6228 103.352H78.3765V109.599H84.6228V103.352Z" fill="black"/>
    <path d="M90.8692 103.352H84.6228V109.599H90.8692V103.352Z" fill="black"/>
    <path d="M97.1156 103.352H90.8692V109.599H97.1156V103.352Z" fill="black"/>
    <path d="M109.608 103.352H103.362V109.599H109.608V103.352Z" fill="black"/>
    <path d="M115.855 103.352H109.608V109.599H115.855V103.352Z" fill="black"/>
    <path d="M122.101 103.352H115.855V109.599H122.101V103.352Z" fill="black"/>
    <path d="M128.347 103.352H122.101V109.599H128.347V103.352Z" fill="black"/>
    <path d="M134.594 103.352H128.347V109.599H134.594V103.352Z" fill="black"/>
    <path d="M140.84 103.352H134.594V109.599H140.84V103.352Z" fill="black"/>
    <path d="M147.087 103.352H140.84V109.599H147.087V103.352Z" fill="black"/>
    <path d="M159.579 103.352H153.333V109.599H159.579V103.352Z" fill="black"/>
    <path d="M59.6373 109.599H53.3909V115.845H59.6373V109.599Z" fill="black"/>
    <path d="M109.608 109.599H103.362V115.845H109.608V109.599Z" fill="black"/>
    <path d="M134.594 109.599H128.347V115.845H134.594V109.599Z" fill="black"/>
    <path d="M140.84 109.599H134.594V115.845H140.84V109.599Z" fill="black"/>
    <path d="M153.333 109.599H147.087V115.845H153.333V109.599Z" fill="black"/>
    <path d="M9.6663 115.845H3.41992V122.091H9.6663V115.845Z" fill="black"/>
    <path d="M15.9127 115.845H9.6663V122.091H15.9127V115.845Z" fill="black"/>
    <path d="M22.1591 115.845H15.9127V122.091H22.1591V115.845Z" fill="black"/>
    <path d="M28.4054 115.845H22.1591V122.091H28.4054V115.845Z" fill="black"/>
    <path d="M34.6518 115.845H28.4054V122.091H34.6518V115.845Z" fill="black"/>
    <path d="M40.8982 115.845H34.6518V122.091H40.8982V115.845Z" fill="black"/>
    <path d="M47.1446 115.845H40.8982V122.091H47.1446V115.845Z" fill="black"/>
    <path d="M72.1301 115.845H65.8837V122.091H72.1301V115.845Z" fill="black"/>
    <path d="M78.3765 115.845H72.1301V122.091H78.3765V115.845Z" fill="black"/>
    <path d="M84.6228 115.845H78.3765V122.091H84.6228V115.845Z" fill="black"/>
    <path d="M97.1156 115.845H90.8692V122.091H97.1156V115.845Z" fill="black"/>
    <path d="M109.608 115.845H103.362V122.091H109.608V115.845Z" fill="black"/>
    <path d="M122.101 115.845H115.855V122.091H122.101V115.845Z" fill="black"/>
    <path d="M134.594 115.845H128.347V122.091H134.594V115.845Z" fill="black"/>
    <path d="M140.84 115.845H134.594V122.091H140.84V115.845Z" fill="black"/>
    <path d="M153.333 115.845H147.087V122.091H153.333V115.845Z" fill="black"/>
    <path d="M9.6663 122.091H3.41992V128.338H9.6663V122.091Z" fill="black"/>
    <path d="M47.1446 122.091H40.8982L40.8982 128.338H47.1446V122.091Z" fill="black"/>
    <path d="M65.8837 122.091H59.6373V128.338H65.8837V122.091Z" fill="black"/>
    <path d="M72.1301 122.091H65.8837V128.338H72.1301V122.091Z" fill="black"/>
    <path d="M78.3765 122.091H72.1301V128.338H78.3765V122.091Z" fill="black"/>
    <path d="M103.362 122.091H97.1156L97.1156 128.338H103.362V122.091Z" fill="black"/>
    <path d="M109.608 122.091H103.362V128.338H109.608V122.091Z" fill="black"/>
    <path d="M134.594 122.091H128.347V128.338H134.594V122.091Z" fill="black"/>
    <path d="M147.087 122.091H140.84V128.338H147.087V122.091Z" fill="black"/>
    <path d="M153.333 122.091H147.087V128.338H153.333V122.091Z" fill="black"/>
    <path d="M9.6663 128.338H3.41992V134.584H9.6663V128.338Z" fill="black"/>
    <path d="M22.1591 128.338H15.9127V134.584H22.1591V128.338Z" fill="black"/>
    <path d="M28.4054 128.338H22.1591V134.584H28.4054V128.338Z" fill="black"/>
    <path d="M34.6518 128.338H28.4054V134.584H34.6518V128.338Z" fill="black"/>
    <path d="M47.1446 128.338H40.8982V134.584H47.1446V128.338Z" fill="black"/>
    <path d="M59.6373 128.338H53.3909V134.584H59.6373V128.338Z" fill="black"/>
    <path d="M65.8837 128.338H59.6373V134.584H65.8837V128.338Z" fill="black"/>
    <path d="M90.8692 128.338H84.6228V134.584H90.8692V128.338Z" fill="black"/>
    <path d="M97.1156 128.338H90.8692V134.584H97.1156L97.1156 128.338Z" fill="black"/>
    <path d="M109.608 128.338H103.362V134.584H109.608V128.338Z" fill="black"/>
    <path d="M115.855 128.338H109.608V134.584H115.855V128.338Z" fill="black"/>
    <path d="M122.101 128.338H115.855V134.584H122.101V128.338Z" fill="black"/>
    <path d="M128.347 128.338H122.101V134.584H128.347V128.338Z" fill="black"/>
    <path d="M134.594 128.338H128.347V134.584H134.594V128.338Z" fill="black"/>
    <path d="M147.087 128.338H140.84V134.584H147.087V128.338Z" fill="black"/>
    <path d="M9.6663 134.584H3.41992V140.83H9.6663V134.584Z" fill="black"/>
    <path d="M22.1591 134.584H15.9127V140.83H22.1591V134.584Z" fill="black"/>
    <path d="M28.4054 134.584H22.1591V140.83H28.4054V134.584Z" fill="black"/>
    <path d="M34.6518 134.584H28.4054V140.83H34.6518V134.584Z" fill="black"/>
    <path d="M47.1446 134.584H40.8982V140.83H47.1446V134.584Z" fill="black"/>
    <path d="M65.8837 134.584H59.6373V140.83H65.8837V134.584Z" fill="black"/>
    <path d="M84.6228 134.584H78.3765V140.83H84.6228V134.584Z" fill="black"/>
    <path d="M90.8692 134.584H84.6228V140.83H90.8692V134.584Z" fill="black"/>
    <path d="M97.1156 134.584H90.8692V140.83H97.1156V134.584Z" fill="black"/>
    <path d="M103.362 134.584H97.1156V140.83H103.362V134.584Z" fill="black"/>
    <path d="M109.608 134.584H103.362V140.83H109.608V134.584Z" fill="black"/>
    <path d="M115.855 134.584H109.608V140.83H115.855V134.584Z" fill="black"/>
    <path d="M122.101 134.584H115.855V140.83H122.101V134.584Z" fill="black"/>
    <path d="M128.347 134.584H122.101V140.83H128.347V134.584Z" fill="black"/>
    <path d="M134.594 134.584H128.347V140.83H134.594V134.584Z" fill="black"/>
    <path d="M140.84 134.584H134.594V140.83H140.84V134.584Z" fill="black"/>
    <path d="M153.333 134.584H147.087V140.83H153.333V134.584Z" fill="black"/>
    <path d="M159.579 134.584H153.333V140.83H159.579V134.584Z" fill="black"/>
    <path d="M9.6663 140.83H3.41992V147.077H9.6663V140.83Z" fill="black"/>
    <path d="M22.1591 140.83H15.9127V147.077H22.1591V140.83Z" fill="black"/>
    <path d="M28.4054 140.83H22.1591V147.077H28.4054V140.83Z" fill="black"/>
    <path d="M34.6518 140.83H28.4054V147.077H34.6518V140.83Z" fill="black"/>
    <path d="M47.1446 140.83H40.8982V147.077H47.1446V140.83Z" fill="black"/>
    <path d="M59.6373 140.83H53.3909V147.077H59.6373V140.83Z" fill="black"/>
    <path d="M65.8837 140.83H59.6373V147.077H65.8837V140.83Z" fill="black"/>
    <path d="M72.1301 140.83H65.8837V147.077H72.1301V140.83Z" fill="black"/>
    <path d="M78.3765 140.83H72.1301V147.077H78.3765V140.83Z" fill="black"/>
    <path d="M90.8692 140.83H84.6228V147.077H90.8692V140.83Z" fill="black"/>
    <path d="M103.362 140.83H97.1156L97.1156 147.077H103.362V140.83Z" fill="black"/>
    <path d="M109.608 140.83H103.362V147.077H109.608V140.83Z" fill="black"/>
    <path d="M115.855 140.83H109.608V147.077H115.855V140.83Z" fill="black"/>
    <path d="M122.101 140.83H115.855V147.077H122.101V140.83Z" fill="black"/>
    <path d="M140.84 140.83H134.594V147.077H140.84V140.83Z" fill="black"/>
    <path d="M153.333 140.83H147.087V147.077H153.333V140.83Z" fill="black"/>
    <path d="M9.6663 147.077H3.41992V153.323H9.6663V147.077Z" fill="black"/>
    <path d="M47.1446 147.077H40.8982V153.323H47.1446V147.077Z" fill="black"/>
    <path d="M59.6373 147.077H53.3909V153.323H59.6373V147.077Z" fill="black"/>
    <path d="M65.8837 147.077H59.6373V153.323H65.8837V147.077Z" fill="black"/>
    <path d="M90.8692 147.077H84.6228V153.323H90.8692V147.077Z" fill="black"/>
    <path d="M97.1156 147.077H90.8692V153.323H97.1156L97.1156 147.077Z" fill="black"/>
    <path d="M103.362 147.077H97.1156L97.1156 153.323H103.362V147.077Z" fill="black"/>
    <path d="M128.347 147.077H122.101V153.323H128.347V147.077Z" fill="black"/>
    <path d="M140.84 147.077H134.594V153.323H140.84V147.077Z" fill="black"/>
    <path d="M147.087 147.077H140.84V153.323H147.087V147.077Z" fill="black"/>
    <path d="M153.333 147.077H147.087V153.323H153.333V147.077Z" fill="black"/>
    <path d="M9.6663 153.323H3.41992V159.57H9.6663V153.323Z" fill="black"/>
    <path d="M15.9127 153.323H9.6663V159.57H15.9127V153.323Z" fill="black"/>
    <path d="M22.1591 153.323H15.9127V159.57H22.1591V153.323Z" fill="black"/>
    <path d="M28.4054 153.323H22.1591V159.57H28.4054V153.323Z" fill="black"/>
    <path d="M34.6518 153.323H28.4054V159.57H34.6518V153.323Z" fill="black"/>
    <path d="M40.8982 153.323H34.6518V159.57H40.8982L40.8982 153.323Z" fill="black"/>
    <path d="M47.1446 153.323H40.8982L40.8982 159.57H47.1446V153.323Z" fill="black"/>
    <path d="M59.6373 153.323H53.3909V159.57H59.6373V153.323Z" fill="black"/>
    <path d="M72.1301 153.323H65.8837V159.57H72.1301V153.323Z" fill="black"/>
    <path d="M84.6228 153.323H78.3765V159.57H84.6228V153.323Z" fill="black"/>
    <path d="M97.1156 153.323H90.8692V159.57H97.1156V153.323Z" fill="black"/>
    <path d="M109.608 153.323H103.362V159.57H109.608V153.323Z" fill="black"/>
    <path d="M122.101 153.323H115.855V159.57H122.101V153.323Z" fill="black"/>
    <path d="M134.594 153.323H128.347V159.57H134.594V153.323Z" fill="black"/>
    <path d="M140.84 153.323H134.594V159.57H140.84V153.323Z" fill="black"/>
    <path d="M147.087 153.323H140.84V159.57H147.087V153.323Z" fill="black"/>
    <path d="M153.333 153.323H147.087V159.57H153.333V153.323Z" fill="black"/>
    <path d="M159.579 153.323H153.333V159.57H159.579V153.323Z" fill="black"/>
  </g>
  <defs>
    <clipPath id="clip0_301_162617">
      <rect width="162.787" height="162.787" fill="white" transform="translate(0.106445 0.0996094)"/>
    </clipPath>
  </defs>
</svg>