<svg width="115" height="115" viewBox="0 0 115 115" fill="none" xmlns="http://www.w3.org/2000/svg">
<g id="Repeat" opacity="0.2">
<path id="Vector" d="M41.3283 40.7298H19.7658C18.495 40.7298 17.2762 40.225 16.3776 39.3264C15.479 38.4278 14.9741 37.209 14.9741 35.9382V14.3757C14.9741 13.1048 15.479 11.886 16.3776 10.9874C17.2762 10.0888 18.495 9.58398 19.7658 9.58398C21.0366 9.58398 22.2554 10.0888 23.154 10.9874C24.0526 11.886 24.5575 13.1048 24.5575 14.3757V31.1465H41.3283C42.5991 31.1465 43.8179 31.6513 44.7165 32.5499C45.6151 33.4485 46.12 34.6673 46.12 35.9382C46.12 37.209 45.6151 38.4278 44.7165 39.3264C43.8179 40.225 42.5991 40.7298 41.3283 40.7298Z" fill="#F08200"/>
<path id="Vector_2" d="M100.625 62.2916C99.3539 62.2916 98.1352 61.7868 97.2365 60.8882C96.3379 59.9896 95.8331 58.7708 95.8331 57.5C95.8367 49.0644 93.0561 40.8635 87.9225 34.1699C82.789 27.4762 75.5896 22.664 67.4417 20.4802C59.2937 18.2963 50.6528 18.8627 42.8597 22.0917C35.0666 25.3207 28.5571 31.0315 24.3414 38.3381C23.7047 39.438 22.6572 40.2399 21.4292 40.5675C20.2013 40.895 18.8935 40.7214 17.7936 40.0847C16.6937 39.448 15.8918 38.4004 15.5642 37.1725C15.2367 35.9445 15.4104 34.6368 16.0471 33.5369C21.3191 24.4051 29.4574 17.2684 39.1995 13.234C48.9415 9.19964 59.7427 8.49307 69.9273 11.2239C80.1119 13.9548 89.1106 19.9704 95.5274 28.3375C101.944 36.7047 105.42 46.9556 105.416 57.5C105.416 58.7708 104.912 59.9896 104.013 60.8882C103.114 61.7868 101.896 62.2916 100.625 62.2916ZM95.2341 105.417C93.9633 105.417 92.7445 104.912 91.8459 104.013C90.9473 103.115 90.4425 101.896 90.4425 100.625V83.8541H73.6716C72.4008 83.8541 71.182 83.3493 70.2834 82.4507C69.3848 81.5521 68.88 80.3333 68.88 79.0625C68.88 77.7916 69.3848 76.5729 70.2834 75.6743C71.182 74.7756 72.4008 74.2708 73.6716 74.2708H95.2341C96.505 74.2708 97.7238 74.7756 98.6224 75.6743C99.521 76.5729 100.026 77.7916 100.026 79.0625V100.625C100.026 101.896 99.521 103.115 98.6224 104.013C97.7238 104.912 96.505 105.417 95.2341 105.417Z" fill="#F08200"/>
<path id="Vector_3" d="M57.5002 105.417C44.7965 105.402 32.6176 100.349 23.6348 91.366C14.6519 82.3832 9.59871 70.2043 9.5835 57.5007C9.5835 56.2298 10.0883 55.011 10.9869 54.1124C11.8856 53.2138 13.1043 52.709 14.3752 52.709C15.646 52.709 16.8648 53.2138 17.7634 54.1124C18.662 55.011 19.1668 56.2298 19.1668 57.5007C19.1632 65.9362 21.9439 74.1371 27.0774 80.8308C32.211 87.5244 39.4103 92.3366 47.5582 94.5205C55.7062 96.7044 64.3471 96.1379 72.1402 92.9089C79.9333 89.68 86.4428 83.9691 90.6585 76.6625C90.9737 76.1179 91.3932 75.6407 91.8929 75.2582C92.3925 74.8757 92.9627 74.5953 93.5707 74.4331C94.1787 74.271 94.8127 74.2301 95.4365 74.313C96.0603 74.3958 96.6617 74.6007 97.2063 74.916C97.7509 75.2312 98.2281 75.6507 98.6106 76.1503C98.9931 76.65 99.2735 77.2201 99.4357 77.8281C99.5979 78.4362 99.6387 79.0702 99.5559 79.694C99.473 80.3178 99.2681 80.9192 98.9529 81.4638C94.7386 88.7302 88.6938 94.7655 81.4207 98.9683C74.1476 103.171 65.9002 105.395 57.5002 105.417Z" fill="#F08200"/>
</g>
</svg>
