<svg xmlns="http://www.w3.org/2000/svg" width="32" height="32" viewBox="0 0 32 32" fill="none">
<mask id="mask0_4824_14760" style="mask-type:alpha" maskUnits="userSpaceOnUse" x="0" y="0" width="32" height="32">
<rect width="32" height="32" fill="#008DF1"/>
</mask>
<g mask="url(#mask0_4824_14760)">
<path d="M9.33398 29.3332V17.1332C8.20065 16.8221 7.25065 16.1998 6.48398 15.2665C5.71732 14.3332 5.33398 13.2443 5.33398 11.9998V2.6665H8.00065V11.9998H9.33398V2.6665H12.0007V11.9998H13.334V2.6665H16.0007V11.9998C16.0007 13.2443 15.6173 14.3332 14.8507 15.2665C14.084 16.1998 13.134 16.8221 12.0007 17.1332V29.3332H9.33398ZM22.6673 29.3332V18.6665H18.6673V9.33317C18.6673 7.48873 19.3173 5.9165 20.6173 4.6165C21.9173 3.3165 23.4895 2.6665 25.334 2.6665V29.3332H22.6673Z" fill="#008DF1"/>
</g>
</svg>