<svg xmlns="http://www.w3.org/2000/svg" width="19" height="18" viewBox="0 0 19 18" fill="none">
<mask id="mask0_2824_3532" style="mask-type:alpha" maskUnits="userSpaceOnUse" x="0" y="0" width="19" height="18">
<rect x="0.620117" y="0.119141" width="17.76" height="17.76" fill="#D9D9D9"/>
</mask>
<g mask="url(#mask0_2824_3532)">
<path d="M16.1603 5.29984V14.1798C16.1603 14.5868 16.0154 14.9353 15.7256 15.2251C15.4357 15.5149 15.0873 15.6598 14.6803 15.6598H4.32033C3.91333 15.6598 3.56492 15.5149 3.27508 15.2251C2.98525 14.9353 2.84033 14.5868 2.84033 14.1798V3.81984C2.84033 3.41284 2.98525 3.06443 3.27508 2.77459C3.56492 2.48476 3.91333 2.33984 4.32033 2.33984H13.2003L16.1603 5.29984ZM9.50033 13.4398C10.117 13.4398 10.6412 13.224 11.0728 12.7923C11.5045 12.3607 11.7203 11.8365 11.7203 11.2198C11.7203 10.6032 11.5045 10.079 11.0728 9.64734C10.6412 9.21568 10.117 8.99984 9.50033 8.99984C8.88367 8.99984 8.3595 9.21568 7.92783 9.64734C7.49617 10.079 7.28033 10.6032 7.28033 11.2198C7.28033 11.8365 7.49617 12.3607 7.92783 12.7923C8.3595 13.224 8.88367 13.4398 9.50033 13.4398ZM5.06033 7.51984H11.7203V4.55984H5.06033V7.51984Z" fill="#008DF1"/>
</g>
</svg>