<svg xmlns="http://www.w3.org/2000/svg" width="24" height="24" viewBox="0 0 24 24" fill="none">
  <mask id="mask0_692_4858" style="mask-type:alpha" maskUnits="userSpaceOnUse" x="0" y="0" width="24" height="24">
    <rect width="24" height="24" fill="#D9D9D9"/>
  </mask>
  <g mask="url(#mask0_692_4858)">
    <path d="M19.6 25.317L13.3 18.3202C12.8 18.7644 12.225 19.1161 11.575 19.3752C10.925 19.6344 10.2333 19.764 9.5 19.764C7.68333 19.764 6.14583 19.0652 4.8875 17.6677C3.62917 16.2702 3 14.5627 3 12.5451C3 10.5275 3.62917 8.81993 4.8875 7.42243C6.14583 6.02492 7.68333 5.32617 9.5 5.32617C11.3167 5.32617 12.8542 6.02492 14.1125 7.42243C15.3708 8.81993 16 10.5275 16 12.5451C16 13.3595 15.8833 14.1277 15.65 14.8496C15.4167 15.5714 15.1 16.21 14.7 16.7653L21 23.7621L19.6 25.317ZM9.5 17.5428C10.75 17.5428 11.8125 17.0569 12.6875 16.0851C13.5625 15.1133 14 13.9333 14 12.5451C14 11.1568 13.5625 9.9768 12.6875 9.00503C11.8125 8.03326 10.75 7.54737 9.5 7.54737C8.25 7.54737 7.1875 8.03326 6.3125 9.00503C5.4375 9.9768 5 11.1568 5 12.5451C5 13.9333 5.4375 15.1133 6.3125 16.0851C7.1875 17.0569 8.25 17.5428 9.5 17.5428Z" fill="#707070"/>
  </g>
</svg>