<svg xmlns="http://www.w3.org/2000/svg" width="24" height="24" viewBox="0 0 24 24" fill="none">
<path d="M6.15855 11.4801H11.7868C11.8598 11.4801 11.9298 11.5092 11.9815 11.5608C12.0331 11.6124 12.0621 11.6825 12.0621 11.7555C12.0621 11.8285 12.0331 11.8986 11.9815 11.9502C11.9298 12.0018 11.8598 12.0309 11.7868 12.0309H6.15855C6.08553 12.0309 6.01549 12.0018 5.96385 11.9502C5.91221 11.8986 5.8832 11.8285 5.8832 11.7555C5.8832 11.6825 5.91221 11.6124 5.96385 11.5608L5.72434 11.3213L5.96385 11.5608C6.01549 11.5092 6.08552 11.4801 6.15855 11.4801Z" fill="white" stroke="white" stroke-width="0.7"/>
<path d="M3.63558 3.49972L3.6508 3.50038L3.66603 3.50011C3.67794 3.4999 3.68971 3.50278 3.70018 3.50846L3.70753 3.51245L3.71502 3.51619L19.9699 11.6436C19.9703 11.6438 19.9708 11.6441 19.9712 11.6443C19.9912 11.6548 20.0079 11.6705 20.0197 11.6898C20.0317 11.7095 20.0381 11.7321 20.0381 11.7552C20.0381 11.7782 20.0317 11.8009 20.0197 11.8205L20.4448 12.0804L20.0197 11.8205C20.0079 11.8398 19.9912 11.8555 19.9712 11.866C19.9708 11.8663 19.9703 11.8665 19.9699 11.8667L3.71502 19.9941L3.70143 20.0009L3.68827 20.0085C3.66627 20.0213 3.64091 20.027 3.61557 20.025C3.59023 20.023 3.5661 20.0133 3.54638 19.9973C3.52666 19.9812 3.51229 19.9596 3.50517 19.9352C3.49805 19.9107 3.49852 19.8848 3.50651 19.8606L3.50659 19.8607L3.50933 19.8518L5.97949 11.9036L6.0256 11.7552L5.97949 11.6068L3.51023 3.66143C3.51014 3.66112 3.51005 3.66082 3.50996 3.66051C3.50436 3.64161 3.50331 3.62165 3.50688 3.60226C3.51051 3.58254 3.51882 3.56399 3.53109 3.54816C3.54337 3.53232 3.55927 3.51965 3.57744 3.51123L3.36717 3.05759L3.57745 3.51123C3.59563 3.5028 3.61557 3.49885 3.63558 3.49972ZM18.7393 12.2024L19.6337 11.7552L18.7393 11.308L4.90641 4.39152L3.85559 3.86612L4.20549 4.98764L6.30233 11.7088C6.30915 11.7393 6.30915 11.771 6.30233 11.8016L4.20549 18.5227L3.85559 19.6442L4.90641 19.1188L18.7393 12.2024Z" fill="white" stroke="white"/>
</svg>