<svg xmlns="http://www.w3.org/2000/svg" width="19" height="18" viewBox="0 0 19 18" fill="none">
  <mask id="mask0_3414_7566" style="mask-type:alpha" maskUnits="userSpaceOnUse" x="0" y="0" width="19" height="18">
    <rect x="0.620117" y="0.119141" width="17.76" height="17.76" fill="#D9D9D9"/>
  </mask>
  <g mask="url(#mask0_3414_7566)">
    <path d="M7.46499 16.3996L7.16899 14.0316C7.00866 13.9699 6.85757 13.8959 6.71574 13.8096C6.5739 13.7233 6.43515 13.6308 6.29949 13.5321L4.09799 14.4571L2.06299 10.9421L3.96849 9.49911C3.95616 9.41278 3.94999 9.32953 3.94999 9.24936V8.74986C3.94999 8.66969 3.95616 8.58644 3.96849 8.50011L2.06299 7.05711L4.09799 3.54211L6.29949 4.46711C6.43515 4.36844 6.57699 4.27594 6.72499 4.18961C6.87299 4.10328 7.02099 4.02928 7.16899 3.96761L7.46499 1.59961H11.535L11.831 3.96761C11.9913 4.02928 12.1424 4.10328 12.2842 4.18961C12.4261 4.27594 12.5648 4.36844 12.7005 4.46711L14.902 3.54211L16.937 7.05711L15.0315 8.50011C15.0438 8.58644 15.05 8.66969 15.05 8.74986V9.24936C15.05 9.32953 15.0377 9.41278 15.013 9.49911L16.9185 10.9421L14.8835 14.4571L12.7005 13.5321C12.5648 13.6308 12.423 13.7233 12.275 13.8096C12.127 13.8959 11.979 13.9699 11.831 14.0316L11.535 16.3996H7.46499ZM9.53699 11.5896C10.2523 11.5896 10.8628 11.3368 11.3685 10.8311C11.8742 10.3254 12.127 9.71494 12.127 8.99961C12.127 8.28428 11.8742 7.67378 11.3685 7.16811C10.8628 6.66244 10.2523 6.40961 9.53699 6.40961C8.80932 6.40961 8.19574 6.66244 7.69624 7.16811C7.19674 7.67378 6.94699 8.28428 6.94699 8.99961C6.94699 9.71494 7.19674 10.3254 7.69624 10.8311C8.19574 11.3368 8.80932 11.5896 9.53699 11.5896ZM9.53699 10.1096C9.22866 10.1096 8.96657 10.0017 8.75074 9.78586C8.53491 9.57003 8.42699 9.30794 8.42699 8.99961C8.42699 8.69128 8.53491 8.42919 8.75074 8.21336C8.96657 7.99753 9.22866 7.88961 9.53699 7.88961C9.84532 7.88961 10.1074 7.99753 10.3232 8.21336C10.5391 8.42919 10.647 8.69128 10.647 8.99961C10.647 9.30794 10.5391 9.57003 10.3232 9.78586C10.1074 10.0017 9.84532 10.1096 9.53699 10.1096ZM8.75999 14.9196H10.2215L10.4805 12.9586C10.8628 12.8599 11.2174 12.715 11.5442 12.5239C11.8711 12.3327 12.1702 12.1014 12.4415 11.8301L14.273 12.5886L14.9945 11.3306L13.4035 10.1281C13.4652 9.95544 13.5083 9.77353 13.533 9.58236C13.5577 9.39119 13.57 9.19694 13.57 8.99961C13.57 8.80228 13.5577 8.60803 13.533 8.41686C13.5083 8.22569 13.4652 8.04378 13.4035 7.87111L14.9945 6.66861L14.273 5.41061L12.4415 6.18761C12.1702 5.90394 11.8711 5.66653 11.5442 5.47536C11.2174 5.28419 10.8628 5.13928 10.4805 5.04061L10.24 3.07961H8.77849L8.51949 5.04061C8.13716 5.13928 7.78257 5.28419 7.45574 5.47536C7.1289 5.66653 6.82982 5.89778 6.55849 6.16911L4.72699 5.41061L4.00549 6.66861L5.59649 7.85261C5.53482 8.03761 5.49165 8.22261 5.46699 8.40761C5.44232 8.59261 5.42999 8.78994 5.42999 8.99961C5.42999 9.19694 5.44232 9.38811 5.46699 9.57311C5.49165 9.75811 5.53482 9.94311 5.59649 10.1281L4.00549 11.3306L4.72699 12.5886L6.55849 11.8116C6.82982 12.0953 7.1289 12.3327 7.45574 12.5239C7.78257 12.715 8.13716 12.8599 8.51949 12.9586L8.75999 14.9196Z" fill="#1C1B1F"/>
  </g>
</svg>