<svg xmlns="http://www.w3.org/2000/svg" width="24" height="24" viewBox="0 0 24 24" fill="none">
  <mask id="mask0_301_162566" style="mask-type:alpha" maskUnits="userSpaceOnUse" x="0" y="0" width="24" height="24">
    <rect width="24" height="24" fill="#D9D9D9"/>
  </mask>
  <g mask="url(#mask0_301_162566)">
    <path d="M4.32509 9H19.6751L18.8251 6H5.20009L4.32509 9ZM16.8001 11H7.22509L6.95009 13H17.0501L16.8001 11ZM4.00009 20L5.22509 11H3.00009C2.66675 11 2.40425 10.8667 2.21259 10.6C2.02092 10.3333 1.96675 10.0417 2.05009 9.725L3.47509 4.725C3.54175 4.50833 3.65842 4.33333 3.82509 4.2C3.99175 4.06667 4.19175 4 4.42509 4H19.5751C19.8084 4 20.0084 4.06667 20.1751 4.2C20.3418 4.33333 20.4584 4.50833 20.5251 4.725L21.9501 9.725C22.0334 10.0417 21.9793 10.3333 21.7876 10.6C21.5959 10.8667 21.3334 11 21.0001 11H18.8001L20.0001 20H18.0001L17.3251 15H6.67509L6.00009 20H4.00009Z" fill="#585858"/>
  </g>
</svg>