<svg xmlns="http://www.w3.org/2000/svg" width="24" height="24" viewBox="0 0 24 24" fill="none">
<mask id="mask0_692_4679" style="mask-type:alpha" maskUnits="userSpaceOnUse" x="0" y="0" width="24" height="24">
<rect width="24" height="24" fill="#D9D9D9"/>
</mask>
<g mask="url(#mask0_692_4679)">
<path d="M16.4702 20C15.9131 20 15.4362 19.8042 15.0394 19.4125C14.6427 19.0208 14.4443 18.55 14.4443 18C14.4443 17.45 14.6427 16.9792 15.0394 16.5875C15.4362 16.1958 15.9131 16 16.4702 16C17.0273 16 17.5042 16.1958 17.9009 16.5875C18.2977 16.9792 18.496 17.45 18.496 18C18.496 18.55 18.2977 19.0208 17.9009 19.4125C17.5042 19.8042 17.0273 20 16.4702 20ZM16.4702 14C15.9131 14 15.4362 13.8042 15.0394 13.4125C14.6427 13.0208 14.4443 12.55 14.4443 12C14.4443 11.45 14.6427 10.9792 15.0394 10.5875C15.4362 10.1958 15.9131 10 16.4702 10C17.0273 10 17.5042 10.1958 17.9009 10.5875C18.2977 10.9792 18.496 11.45 18.496 12C18.496 12.55 18.2977 13.0208 17.9009 13.4125C17.5042 13.8042 17.0273 14 16.4702 14ZM16.4702 8C15.9131 8 15.4362 7.80417 15.0394 7.4125C14.6427 7.02083 14.4443 6.55 14.4443 6C14.4443 5.45 14.6427 4.97917 15.0394 4.5875C15.4362 4.19583 15.9131 4 16.4702 4C17.0273 4 17.5042 4.19583 17.9009 4.5875C18.2977 4.97917 18.496 5.45 18.496 6C18.496 6.55 18.2977 7.02083 17.9009 7.4125C17.5042 7.80417 17.0273 8 16.4702 8Z" fill="#707070"/>
</g>
</svg>