<svg xmlns="http://www.w3.org/2000/svg" width="24" height="24" viewBox="0 0 24 24" fill="none">
<path d="M15.8693 13.3978C15.6793 13.3028 14.4444 12.7328 14.2544 12.6378C14.0644 12.5428 13.8744 12.5428 13.6844 12.7328C13.4944 12.9228 13.1144 13.4928 12.9244 13.6828C12.8294 13.8727 12.6395 13.8727 12.4495 13.7778C11.7845 13.4928 11.1195 13.1128 10.5496 12.6378C10.0746 12.1628 9.59961 11.5929 9.21963 11.0229C9.12463 10.8329 9.21963 10.6429 9.31462 10.5479C9.40962 10.4529 9.50461 10.2629 9.6946 10.1679C9.7896 10.0729 9.88459 9.88295 9.88459 9.78796C9.97959 9.69296 9.97959 9.50297 9.88459 9.40798C9.7896 9.31298 9.31462 8.17304 9.12463 7.69807C9.02964 7.0331 8.83965 7.0331 8.64966 7.0331H8.17468C7.98469 7.0331 7.69971 7.22309 7.60471 7.31808C7.03474 7.88806 6.74976 8.55302 6.74976 9.31298C6.84475 10.1679 7.12974 11.0229 7.69971 11.7829C8.74465 13.3028 10.0746 14.5377 11.6895 15.2977C12.1645 15.4877 12.5445 15.6777 13.0194 15.7726C13.4944 15.9626 13.9694 15.9626 14.5394 15.8676C15.2043 15.7726 15.7743 15.2977 16.1543 14.7277C16.3443 14.3477 16.3443 13.9677 16.2493 13.5878L15.8693 13.3978ZM18.2442 4.75322C14.5394 1.04841 8.55466 1.04841 4.84985 4.75322C1.81001 7.79306 1.24004 12.4478 3.32993 16.1526L2 20.9974L7.03474 19.6674C8.45967 20.4274 9.97959 20.8074 11.4995 20.8074C16.7242 20.8074 20.904 16.6276 20.904 11.4029C20.999 8.933 19.9541 6.55812 18.2442 4.75322ZM15.6793 18.0525C14.4444 18.8125 13.0194 19.2875 11.4995 19.2875C10.0746 19.2875 8.74465 18.9075 7.50972 18.2425L7.22473 18.0525L4.27988 18.8125L5.03984 15.9626L4.84985 15.6777C2.56997 11.8778 3.70991 7.12809 7.41472 4.75322C11.1195 2.37834 15.8693 3.61328 18.1492 7.22309C20.4291 10.9279 19.3841 15.7726 15.6793 18.0525Z" fill="url(#paint0_linear_692_4968)"/>
<defs>
<linearGradient id="paint0_linear_692_4968" x1="11.455" y1="1.97461" x2="11.455" y2="20.9974" gradientUnits="userSpaceOnUse">
<stop stop-color="#01CBD5"/>
<stop offset="1" stop-color="#008DF1"/>
</linearGradient>
</defs>
</svg>